HIERARCHY
ROOT Hips
{
	OFFSET 0.000000 0.000000 0.000000
	CHANNELS 6 Xposition Yposition Zposition Zrotation Yrotation Xrotation 
	JOINT LowerBack
	{
		OFFSET 0.000000 0.000000 0.000000
		CHANNELS 3 Zrotation Yrotation Xrotation
		JOINT Spine
		{
			OFFSET 0.028270 2.035590 -0.193380
			CHANNELS 3 Zrotation Yrotation Xrotation
			JOINT Spine1
			{
				OFFSET 0.056720 2.048850 -0.042750
				CHANNELS 3 Zrotation Yrotation Xrotation
				JOINT Neck
				{
					OFFSET 0.000000 0.000000 0.000000
					CHANNELS 3 Zrotation Yrotation Xrotation
					JOINT Neck1
					{
						OFFSET -0.054170 1.746240 0.172020
						CHANNELS 3 Zrotation Yrotation Xrotation
						JOINT Head
						{
							OFFSET 0.104070 1.761360 -0.123970
							CHANNELS 3 Zrotation Yrotation Xrotation
							End Site
							{
								OFFSET 0.000000 0.000000 0.000000
							}
						}
					}
				}
				JOINT LeftShoulder
				{
					OFFSET 0.000000 0.000000 0.000000
					CHANNELS 3 Zrotation Yrotation Xrotation
					JOINT LeftArm
					{
						OFFSET 3.362410 1.200890 -0.311210
						CHANNELS 3 Zrotation Yrotation Xrotation
						JOINT LeftForeArm
						{
							OFFSET 4.983000 -0.000000 -0.000000
							CHANNELS 3 Zrotation Yrotation Xrotation
							JOINT LeftHand
							{
								OFFSET 3.483560 -0.000000 -0.000000
								CHANNELS 3 Zrotation Yrotation Xrotation
								JOINT LeftFingerBase
								{
									OFFSET 0.000000 0.000000 0.000000
									CHANNELS 3 Zrotation Yrotation Xrotation
									JOINT LeftHandIndex1
									{
										OFFSET 0.715260 -0.000000 -0.000000
										CHANNELS 3 Zrotation Yrotation Xrotation
										End Site
										{
											OFFSET 0.000000 0.000000 0.000000
										}
									}
								}
								JOINT LThumb
								{
									OFFSET 0.000000 0.000000 0.000000
									CHANNELS 3 Zrotation Yrotation Xrotation
									End Site
									{
										OFFSET 0.000000 0.000000 0.000000
									}
								}
							}
						}
					}
				}
				JOINT RightShoulder
				{
					OFFSET 0.000000 0.000000 0.000000
					CHANNELS 3 Zrotation Yrotation Xrotation
					JOINT RightArm
					{
						OFFSET -3.136600 1.374050 -0.404650
						CHANNELS 3 Zrotation Yrotation Xrotation
						JOINT RightForeArm
						{
							OFFSET -5.241900 -0.000000 -0.000000
							CHANNELS 3 Zrotation Yrotation Xrotation
							JOINT RightHand
							{
								OFFSET -3.444170 -0.000000 -0.000000
								CHANNELS 3 Zrotation Yrotation Xrotation
								JOINT RightFingerBase
								{
									OFFSET 0.000000 0.000000 0.000000
									CHANNELS 3 Zrotation Yrotation Xrotation
									JOINT RightHandIndex1
									{
										OFFSET -0.622530 -0.000000 -0.000000
										CHANNELS 3 Zrotation Yrotation Xrotation
										End Site
										{
											OFFSET 0.000000 0.000000 0.000000
										}
									}
								}
								JOINT RThumb
								{
									OFFSET 0.000000 0.000000 0.000000
									CHANNELS 3 Zrotation Yrotation Xrotation
									End Site
									{
										OFFSET 0.000000 0.000000 0.000000
									}
								}
							}
						}
					}
				}
			}
		}
	}
}
}
MOTION
Frames: 12
Frame Time: 0.008333
0.446836 17.139911 1.517773 -38.407736 -76.953871 40.707855 6.862516 -4.294399 5.302091 0.244882 -4.477523 -2.421094 -8.116473 -4.498582 -1.528410 12.184889 -6.346645 -4.536848 -4.543176 -0.365829 0.725850 0.000000 0.000000 0.000000 -2.675579 -6.580212 2.310832 -71.727267 -6.818583 18.261272 -2.902228 -21.130597 -0.000868 4.166962 -3.731757 -0.140501 -0.064321 0.083402 0.000000 0.000000 0.000000 0.000000 0.000000 0.000000 0.000000 21.074463 -6.630459 1.605186 74.001968 -7.038316 -5.277036 3.829100 14.396157 0.011775 2.421636 9.675113 0.201355 0.057042 -0.040487 -0.000000 0.000000 0.000000 0.000000 0.000000 0.000000 0.000000 
0.454109 17.130564 1.520399 -38.699693 -76.941844 40.783693 6.831332 -4.243937 5.341553 0.235359 -4.428307 -2.392389 -8.136887 -4.447378 -1.486473 12.252595 -6.515958 -4.556316 -4.544363 -0.365906 0.723154 0.000000 0.000000 0.000000 -2.745559 -6.407824 2.254372 -71.732379 -6.862797 19.038083 -2.891605 -21.634659 -0.000607 3.947462 -3.630534 -0.129589 -0.064430 0.083013 0.000000 0.000000 0.000000 0.000000 0.000000 0.000000 0.000000 21.173894 -6.769273 1.564384 73.943575 -6.911413 -5.504284 3.813303 14.578181 0.011912 2.322097 9.788903 0.195160 0.057228 -0.041804 -0.000000 0.000000 0.000000 0.000000 0.000000 0.000000 0.000000 
0.461572 17.121242 1.523510 -39.075405 -77.071607 40.926179 6.760608 -4.176239 5.436971 0.204328 -4.355816 -2.383451 -8.150902 -4.372943 -1.459251 12.287158 -6.635122 -4.582322 -4.542461 -0.365243 0.715680 0.000000 0.000000 0.000000 -2.855961 -6.147181 2.213302 -71.715261 -6.919441 19.760848 -2.881519 -22.172554 -0.000362 3.745033 -3.555458 -0.120479 -0.064367 0.082679 0.000000 0.000000 0.000000 0.000000 0.000000 0.000000 0.000000 21.219969 -6.851055 1.530289 73.893586 -6.771489 -5.745686 3.797558 14.705708 0.012072 2.185617 9.913988 0.185765 0.057675 -0.043126 -0.000000 0.000000 0.000000 0.000000 0.000000 0.000000 0.000000 
0.468805 17.112866 1.527400 -39.859620 -77.219633 41.282703 6.744961 -4.108095 5.703618 0.184211 -4.276550 -2.338152 -8.159685 -4.291546 -1.442776 12.290367 -6.697999 -4.603140 -4.537536 -0.364125 0.707345 0.000000 0.000000 0.000000 -3.011860 -5.826118 2.181189 -71.683791 -6.988573 20.394903 -2.869006 -22.729750 -0.000155 3.580550 -3.519782 -0.114169 -0.064157 0.082647 0.000000 0.000000 0.000000 0.000000 0.000000 0.000000 0.000000 21.211897 -6.858026 1.501855 73.846251 -6.620324 -5.978692 3.783868 14.784057 0.012252 2.020841 10.047218 0.173672 0.058329 -0.044407 -0.000000 0.000000 0.000000 0.000000 0.000000 0.000000 0.000000 
0.475122 17.106744 1.533302 -41.234683 -77.402563 42.149692 6.812055 -4.022527 6.037817 0.181522 -4.180119 -2.276005 -8.164029 -4.193366 -1.431308 12.257362 -6.701766 -4.619434 -4.530094 -0.362745 0.699303 0.000000 0.000000 0.000000 -3.230192 -5.434349 2.152560 -71.644658 -7.057167 20.913881 -2.851128 -23.295363 -0.000003 3.471562 -3.532671 -0.111060 -0.063751 0.082854 0.000000 0.000000 0.000000 0.000000 0.000000 0.000000 0.000000 21.145894 -6.782737 1.478121 73.785370 -6.462173 -6.181441 3.776635 14.819497 0.012480 1.838824 10.183586 0.159677 0.059348 -0.045650 -0.000000 0.000000 0.000000 0.000000 0.000000 0.000000 0.000000 
0.479914 17.103728 1.541611 -43.171302 -77.638684 43.589102 6.943729 -3.913052 6.360634 0.193711 -4.062997 -2.213784 -8.162707 -4.075294 -1.420627 12.188320 -6.650234 -4.632033 -4.519977 -0.361200 0.692315 0.000000 0.000000 0.000000 -3.510732 -4.972197 2.123136 -71.608165 -7.112225 21.302282 -2.827073 -23.855799 0.000085 3.430853 -3.598695 -0.111752 -0.063163 0.083230 0.000000 0.000000 0.000000 0.000000 0.000000 0.000000 0.000000 21.023688 -6.630787 1.457198 73.701956 -6.301185 -6.336111 3.777594 14.819553 0.012774 1.652312 10.316409 0.144685 0.060777 -0.046838 -0.000000 0.000000 0.000000 0.000000 0.000000 0.000000 0.000000 
0.482436 17.104250 1.551812 -45.513697 -77.927052 45.504355 7.100714 -3.783186 6.617186 0.214383 -3.929641 -2.163037 -8.154341 -3.941886 -1.407884 12.089763 -6.553840 -4.640726 -4.507011 -0.359574 0.687222 0.000000 0.000000 0.000000 -3.835304 -4.454246 2.089090 -71.587356 -7.132783 21.549966 -2.797181 -24.398828 0.000107 3.463883 -3.717356 -0.116446 -0.062434 0.083672 0.000000 0.000000 0.000000 0.000000 0.000000 0.000000 0.000000 20.854904 -6.419266 1.436146 73.592974 -6.145433 -6.426452 3.786542 14.793611 0.013125 1.474057 10.437748 0.129893 0.062570 -0.047911 -0.000000 0.000000 0.000000 0.000000 0.000000 0.000000 0.000000 
0.482091 17.108332 1.562747 -48.050740 -78.253112 47.713284 7.241687 -3.642076 6.782759 0.236316 -3.788618 -2.129377 -8.138893 -3.801667 -1.394584 11.973269 -6.415318 -4.640855 -4.491741 -0.358008 0.685697 0.000000 0.000000 0.000000 -4.172209 -3.910964 2.049477 -71.594907 -7.094198 21.650884 -2.762775 -24.914692 0.000065 3.569199 -3.885650 -0.125342 -0.061618 0.084087 0.000000 0.000000 0.000000 0.000000 0.000000 0.000000 0.000000 20.655633 -6.159017 1.413430 73.466221 -6.014326 -6.476348 3.802003 14.758700 0.013508 1.327672 10.537249 0.117402 0.064533 -0.048820 -0.000000 0.000000 0.000000 0.000000 0.000000 0.000000 0.000000 
0.480355 17.115238 1.575418 -50.825925 -78.587752 50.204287 7.391418 -3.494874 6.912631 0.264841 -3.642733 -2.101877 -8.111436 -3.657089 -1.377020 11.829865 -6.269584 -4.641285 -4.469941 -0.356035 0.684712 0.000000 0.000000 0.000000 -4.524173 -3.349042 2.003476 -71.645912 -7.027300 21.624669 -2.724225 -25.382485 -0.000051 3.733898 -4.083829 -0.137540 -0.060715 0.084519 0.000000 0.000000 0.000000 0.000000 0.000000 0.000000 0.000000 20.399882 -5.888614 1.390920 73.322364 -5.857414 -6.429641 3.824214 14.696936 0.013935 1.204658 10.614730 0.106611 0.066769 -0.049547 -0.000000 0.000000 0.000000 0.000000 0.000000 0.000000 0.000000 
0.474628 17.124779 1.585748 -53.264862 -78.908562 52.461655 7.459983 -3.364069 6.937729 0.282954 -3.514616 -2.092160 -8.078153 -3.530284 -1.355741 11.696315 -6.113482 -4.633849 -4.446460 -0.354247 0.687542 0.000000 0.000000 0.000000 -4.819249 -2.806632 1.950558 -71.742010 -6.878828 21.487807 -2.685668 -25.802614 -0.000201 3.947085 -4.307922 -0.153140 -0.059923 0.084740 0.000000 0.000000 0.000000 0.000000 0.000000 0.000000 0.000000 20.151542 -5.619414 1.361242 73.174785 -5.743007 -6.350420 3.848480 14.653102 0.014331 1.139680 10.655433 0.100819 0.068834 -0.049947 -0.000000 0.000000 0.000000 0.000000 0.000000 0.000000 0.000000 
0.466644 17.135659 1.595073 -55.423449 -79.192386 54.457428 7.491474 -3.252209 6.938007 0.298679 -3.404177 -2.084963 -8.034318 -3.420922 -1.330247 11.558854 -5.990626 -4.627114 -4.416657 -0.352124 0.690972 0.000000 0.000000 0.000000 -5.067824 -2.310044 1.891432 -71.893284 -6.664173 21.240202 -2.646325 -26.173026 -0.000389 4.181741 -4.530798 -0.170442 -0.059060 0.084779 0.000000 0.000000 0.000000 0.000000 0.000000 0.000000 0.000000 19.876440 -5.397505 1.329845 73.024240 -5.609757 -6.168229 3.874976 14.602561 0.014718 1.110517 10.665735 0.097926 0.070909 -0.050045 -0.000000 0.000000 0.000000 0.000000 0.000000 0.000000 0.000000 
0.455383 17.147266 1.600576 -56.901727 -79.440328 55.813590 7.431943 -3.171671 6.887257 0.300362 -3.323603 -2.084240 -7.985576 -3.340846 -1.300967 11.442950 -5.894277 -4.618023 -4.384007 -0.350007 0.696117 0.000000 0.000000 0.000000 -5.223822 -1.870634 1.828587 -72.091090 -6.373750 20.926516 -2.610566 -26.491584 -0.000572 4.421331 -4.739743 -0.188245 -0.058361 0.084550 0.000000 0.000000 0.000000 0.000000 0.000000 0.000000 0.000000 19.618725 -5.221598 1.293069 72.884786 -5.501164 -5.955942 3.900005 14.578886 0.015039 1.142329 10.638062 0.100531 0.072648 -0.049812 -0.000000 0.000000 0.000000 0.000000 0.000000 0.000000 0.000000 
